<?xml version="1.0" encoding="utf-8"?>
<!-- Svg Vector Icons : http://www.onlinewebfonts.com/icon -->
<!DOCTYPE svg PUBLIC "-//W3C//DTD SVG 1.1//EN" "http://www.w3.org/Graphics/SVG/1.1/DTD/svg11.dtd">
<svg version="1.1" xmlns="http://www.w3.org/2000/svg" xmlns:xlink="http://www.w3.org/1999/xlink" x="0px" y="0px" viewBox="0 0 1000 1000" enable-background="new 0 0 1000 1000" xml:space="preserve">
<metadata> Svg Vector Icons : http://www.onlinewebfonts.com/icon </metadata>
<g><path d="M66.9,372.6h699.4v145.1c0,18.3,10.4,22.5,23.2,9.5l194.2-197.5c8.5-8.7,8.5-22.7-0.1-31.3L789.6,104.1c-12.9-12.9-23.4-8.6-23.4,9.7v145.1H66.9c-31.4,0-56.9,25.5-56.9,56.9C10,347.1,35.5,372.6,66.9,372.6z"/><path d="M933.1,627.4H233.8V482.4c0-18.3-10.5-22.6-23.4-9.7L16.5,666.9c-8.6,8.6-8.7,22.6-0.1,31.3l194.2,197.5c12.8,13,23.2,8.8,23.2-9.5V741.2h699.4c31.4,0,56.9-25.5,56.9-56.9C990,652.9,964.5,627.4,933.1,627.4z"/></g>
</svg>